<svg xmlns="http://www.w3.org/2000/svg" viewBox="0 0 24 24" fill="none" stroke-width="1.75" stroke-linecap="square" stroke-linejoin="bevel">
  <g class="nrn-icon__primary" stroke="currentColor">
    <path d="m8 4 4-2 4 2 3 3.5.7 4.5-1.5 4.2-3.7 2.7-4.5.3-4-2.3L3.8 13 4 8.5 8 4Z"/>
    <path d="M8 4 6.8 9l3.2 3 5-1 1-7M10 12v7.2M15 11l3.2 5.2M6.8 9 4 8.5"/>
    <path d="M7.2 8.8h.01M10 12h.01M15 11h.01M16 4h.01"/>
  </g>
  <g class="nrn-icon__accent" stroke="var(--nrn-icon-accent, #FF9A00)">
    <path d="m4 8.5-.2 4.5M18.2 16.2l-1.5 1.1"/>
  </g>
</svg>
